<?xml version="1.0" encoding="utf-8"?>
<!-- Generator: Adobe Illustrator 24.0.1, SVG Export Plug-In . SVG Version: 6.00 Build 0)  -->
<svg width="230" version="1.1" id="Camada_1" xmlns="http://www.w3.org/2000/svg" xmlns:xlink="http://www.w3.org/1999/xlink" x="0px" y="0px"
	 viewBox="0 0 1041.95 456.58" style="enable-background:new 0 0 1041.95 456.58;" xml:space="preserve">
<style type="text/css">
	.st0{fill:#575756;}
	.st1{fill:#DADADA;}
	.st2{fill:#FFFFFF;}
	.st3{fill:#F7D1BA;}
	.st4{fill:#D39A89;}
	.st5{fill:#CE7E5D;}
	.st6{fill:#A7523D;}
</style>
<g>
	<g>
		<g>
			<path class="st6" d="M842.48,316.62c-14.52-17-26.03-30.58-30.82-36.4c-0.17-0.21-12.24-0.19-12.24-0.19
				c4.4,5.34,15.56,18.22,29.71,34.71c13.99,16.18,15.87,17.43,25.93,17.43l3.77,0l0-2.04C853.96,330.13,853.8,329.66,842.48,316.62
				z"/>
			<path class="st6" d="M839.65,259.94c-0.46-2.8-1.49-5.5-3.03-7.88c-1.64-2.52-3.83-4.64-6.38-6.23c-2.95-1.83-6.3-2.92-9.73-3.41
				c-1.51-0.21-3.04-0.31-4.57-0.31h-33.26v1.15l5.12,2.17v86.72h8.06v-47.71l4.28-0.02c-0.63-0.79-1.27-1.57-1.84-2.41h-2.44
				v-37.48h16.63c23.75,0,24.97,33.59,3.71,37.13c0.34,0.24,1.94,2.05,2.36,2.71c0.35-0.02,0.64-0.05,0.75-0.06
				c0.61-0.03,1.21-0.12,1.81-0.22c0.91-0.15,1.82-0.34,2.71-0.58c1.65-0.44,3.26-1.04,4.78-1.82c2.73-1.39,5.16-3.35,7.04-5.77
				c1.75-2.25,3-4.88,3.68-7.65C839.99,265.57,840.1,262.71,839.65,259.94z"/>
		</g>
		<path class="st6" d="M627.98,242.12H617.5v0.77l4.99,2.69l19.95,59.48h-38.12l17.84-51.6c-0.28-1.21-0.87-2.38-1.19-3.58
			l-28.93,82.29h2.81l8.7-24.94h39.65l8.57,24.94h8.19L627.98,242.12z"/>
		<path class="st6" d="M132.3,242.12h-10.49v0.77l4.99,2.69l19.95,59.48h-38.12l17.84-51.6c-0.28-1.21-0.87-2.38-1.19-3.58
			l-28.93,82.29h2.81l8.7-24.94h39.65l8.57,24.94h8.19L132.3,242.12z"/>
		<g>
			<path class="st6" d="M339.05,316.62c-14.52-17-26.03-30.58-30.82-36.4c-0.17-0.21-12.24-0.19-12.24-0.19
				c4.4,5.34,15.56,18.22,29.71,34.71c13.99,16.18,15.87,17.43,25.93,17.43l3.77,0l0-2.04
				C350.53,330.13,350.37,329.66,339.05,316.62z"/>
			<path class="st6" d="M336.22,259.94c-0.46-2.8-1.49-5.5-3.03-7.88c-1.64-2.52-3.83-4.64-6.38-6.23c-2.95-1.83-6.3-2.92-9.73-3.41
				c-1.51-0.21-3.04-0.31-4.57-0.31h-33.26v1.15l5.12,2.17v86.72h8.06v-47.71l4.28-0.02c-0.63-0.79-1.27-1.57-1.84-2.41h-2.44
				v-37.48h16.63c23.75,0,24.97,33.59,3.71,37.13c0.34,0.24,1.94,2.05,2.36,2.71c0.35-0.02,0.64-0.05,0.75-0.06
				c0.61-0.03,1.21-0.12,1.81-0.22c0.91-0.15,1.82-0.34,2.71-0.58c1.65-0.44,3.26-1.04,4.78-1.82c2.73-1.39,5.16-3.35,7.04-5.77
				c1.75-2.25,3-4.88,3.68-7.65C336.56,265.57,336.67,262.71,336.22,259.94z"/>
		</g>
		<path class="st6" d="M46.73,244.29l-2.17,5.24h-1.02v-7.67h61.91v2.43H78.58v87.62h-8.19v-87.62H46.73z"/>
		<path class="st6" d="M169.14,243.01v-1.15h13.3l26.6,76.23l27.63-76.23h8.06v90.05h-8.06v-81.22l-29.29,81.22h-1.15l-29.16-82.12
			v82.12h-2.81v-86.72L169.14,243.01z"/>
		<path class="st6" d="M255.98,241.86h13.17v90.05h-8.06v-86.72l-5.12-2.17V241.86z"/>
		<path class="st6" d="M357.62,243.01v-1.15h58.2v2.43h-44.9v38.12h35.69v2.43h-35.69v44.64h44.9v2.43h-53.08v-86.72L357.62,243.01z
			"/>
		<path class="st6" d="M472.87,251.7c-4.99-6.78-14.33-10.36-23.28-10.36c-6.14,0-12.15,1.66-16.24,5.37
			c-8.95,8.19-6.27,18.93,3.45,25.07c12.54,7.8,42.85,13.56,42.85,35.56c0,17.01-14.33,25.2-28.14,25.33
			c-12.79,0-24.94-5.37-33.38-15.09l1.54-1.28c7.8,8.95,19.44,13.43,31.08,13.43c11.64-0.51,22-7.8,21.49-21.49
			c-0.51-15.48-27.76-22.13-39.65-28.4c-7.04-3.71-12.15-10.23-12.28-18.42c0-15.09,14.2-22.77,27.76-22.77
			c9.98,0,20.34,3.97,26.09,11.64L472.87,251.7z"/>
		<path class="st6" d="M516.61,241.86h26.73c35.18,0,45.41,24.56,45.41,45.15s-10.36,44.9-45.41,44.9h-21.49v-86.72l-5.24-2.17
			V241.86z M529.79,329.61h13.56c29.93,0,36.33-23.15,36.33-42.72c0-19.7-7.04-42.59-36.33-42.59h-13.56V329.61z"/>
		<path class="st6" d="M729.04,326.67c4.99,2.69,10.74,3.97,16.37,3.97c11,0,22-5.12,28.4-15.99l1.79,0.51
			c-6.91,13.3-19.44,18.93-32.23,18.93c-7.68,0-15.48-2.05-22.13-5.63c-30.31-15.86-30.31-67.41,0-83.27
			c6.65-3.45,14.2-5.37,21.87-5.37c12.79,0,25.45,5.5,32.49,18.68l-1.79,0.51c-6.39-10.87-17.27-15.99-28.27-15.99
			c-5.76,0-11.38,1.41-16.5,4.09C700.39,262.07,700.39,311.58,729.04,326.67z"/>
		<path class="st6" d="M855.32,241.86h13.3v61.65c0.26,20.34,12.41,25.84,24.3,25.84c11.77,0,23.54-5.24,23.79-25.84v-61.65h3.07
			l-0.13,61.65c0.26,23.15-14.58,30.06-29.42,30.06c-19.19,0-29.93-10.74-29.8-30.06v-58.33l-5.12-2.17V241.86z"/>
		<path class="st6" d="M935.26,244.29l-2.05,5.24h-1.15v-7.67h65.11l-56.28,87.62h53.34l-0.13,2.43h-61.78v-3.2l53.98-84.42H935.26z
			"/>
	</g>
	<g>
		<path class="st6" d="M128.96,363.94c0.37,0,0.53,0.16,0.53,0.53v35.88c0,0.37-0.16,0.53-0.53,0.53h-3.35
			c-0.27,0-0.43-0.11-0.59-0.32l-20.5-30.93v30.72c0,0.37-0.16,0.53-0.53,0.53h-2.66c-0.37,0-0.53-0.16-0.53-0.53v-35.88
			c0-0.37,0.16-0.53,0.53-0.53h3.41c0.21,0,0.43,0.11,0.59,0.37l20.44,30.93v-30.77c0-0.37,0.16-0.53,0.53-0.53H128.96z"/>
		<path class="st6" d="M149.25,364.47c0-0.32,0.16-0.48,0.53-0.48h2.72c0.32,0,0.48,0.16,0.48,0.53v21.93
			c0,7.45,3.67,11.29,9.48,11.29c5.8,0,9.32-3.78,9.32-11.29v-21.99c0-0.37,0.16-0.53,0.53-0.53h2.72c0.37,0,0.53,0.16,0.53,0.53
			v21.99c0,9.64-5.06,14.91-13.15,14.91c-8.09,0-13.15-5.32-13.15-14.96V364.47z"/>
		<path class="st6" d="M203.08,367.34h-11.34c-0.37,0-0.53-0.16-0.53-0.48v-2.4c0-0.37,0.16-0.53,0.53-0.53h26.35
			c0.37,0,0.53,0.16,0.53,0.53v2.34c0,0.37-0.16,0.53-0.53,0.53h-11.29v33.06c0,0.32-0.16,0.48-0.53,0.48h-2.72
			c-0.32,0-0.48-0.16-0.48-0.48V367.34z"/>
		<path class="st6" d="M243.44,384.96h-5.32v15.39c0,0.37-0.16,0.53-0.53,0.53h-2.72c-0.37,0-0.53-0.16-0.53-0.53v-35.88
			c0-0.37,0.16-0.53,0.53-0.53h3.25h7.24c7.45,0,11.82,3.83,11.87,10.49c-0.05,6.02-3.62,9.74-9.85,10.44l9.9,15.38
			c0.27,0.43,0.16,0.64-0.32,0.64h-3.51c-0.21,0-0.43-0.11-0.59-0.27L243.44,384.96z M238.12,367.29v14.27h7.35
			c5.27,0,8.04-2.61,8.04-7.08c0-4.52-2.82-7.19-8.09-7.19H238.12z"/>
		<path class="st6" d="M278.16,400.41c0,0.32-0.16,0.48-0.48,0.48h-2.72c-0.37,0-0.53-0.16-0.53-0.48v-35.94
			c0-0.37,0.16-0.53,0.48-0.53h2.71c0.37,0,0.53,0.16,0.53,0.53V400.41z"/>
		<path class="st6" d="M314.52,401.41c-5.64,0-10.22-1.76-13.68-5.22c-3.46-3.51-5.16-8.09-5.16-13.74c0-6.12,2.29-11.23,5.86-14.27
			c3.62-3.03,8.15-4.74,12.99-4.74c4.9-0.05,9.64,1.7,13.2,4.95c0.27,0.21,0.27,0.42,0,0.69l-1.81,1.7c-0.27,0.26-0.48,0.26-0.75,0
			c-2.82-2.5-6.39-3.73-10.65-3.73c-4.52,0-8.2,1.44-10.97,4.26c-2.77,2.82-4.15,6.5-4.15,11.13c0,4.58,1.38,8.25,4.15,11.07
			c2.77,2.82,6.44,4.21,10.97,4.21c4.21,0,7.77-1.23,10.59-3.73c0.32-0.16,0.59-0.16,0.8,0.05l1.86,1.7c0.27,0.27,0.27,0.48,0,0.75
			C324.37,399.76,319.95,401.41,314.52,401.41z M315.96,400.88l-0.8,1.86c3.14,0.32,4.68,1.76,4.68,4.37c0,2.77-2.24,4.68-5.43,4.68
			c-1.81,0-3.46-0.59-5-1.75c-0.27-0.16-0.27-0.37-0.05-0.59l1.01-1.33c0.16-0.21,0.37-0.27,0.64-0.11c1.22,0.8,2.4,1.17,3.41,1.17
			c1.49,0,2.55-0.85,2.55-2.08c0-1.17-1.01-1.76-3.09-1.76h-2.18c-0.37,0-0.43-0.16-0.27-0.48l1.7-3.99H315.96z"/>
		<path class="st6" d="M365.85,389.01h-16.72l-4.68,11.5c-0.11,0.27-0.32,0.37-0.59,0.37h-2.66c-0.48,0-0.59-0.21-0.43-0.59
			l14.64-35.83c0.11-0.32,0.32-0.48,0.69-0.48h2.77c0.37,0,0.59,0.16,0.75,0.48l14.59,35.83c0.16,0.37,0.05,0.59-0.37,0.59h-2.77
			c-0.27,0-0.43-0.11-0.53-0.37L365.85,389.01z M357.54,368.35l-7.03,17.25h14L357.54,368.35z M352.06,361.01l-1.22-0.85
			c-0.27-0.27-0.32-0.53-0.21-0.8c1.01-2.82,2.72-4.52,4.58-4.52c3.46,0,3.78,3.73,6.07,3.73c1.12-0.05,2.02-0.96,2.61-2.71
			c0.16-0.37,0.43-0.48,0.75-0.27l1.17,0.85c0.27,0.21,0.32,0.48,0.21,0.75c-0.91,2.82-2.66,4.52-4.58,4.52
			c-3.35,0-3.89-3.73-6.12-3.73c-1.06,0.05-1.92,0.96-2.61,2.82C352.54,361.17,352.33,361.27,352.06,361.01z"/>
		<path class="st6" d="M391.73,368.67c3.46-3.46,8.04-5.22,13.73-5.22c5.7,0,10.28,1.76,13.73,5.22c3.46,3.46,5.22,8.04,5.22,13.74
			s-1.76,10.33-5.22,13.79c-3.46,3.46-8.04,5.16-13.73,5.16c-5.7,0-10.33-1.7-13.79-5.16c-3.46-3.46-5.16-8.09-5.16-13.79
			S388.27,372.14,391.73,368.67z M390.24,382.41c0,4.63,1.38,8.3,4.21,11.13c2.82,2.82,6.5,4.21,11.02,4.21
			c4.53,0,8.2-1.39,10.97-4.21c2.82-2.82,4.21-6.5,4.21-11.13c0-4.63-1.38-8.3-4.21-11.13c-2.77-2.82-6.44-4.2-10.97-4.2
			c-4.52,0-8.2,1.38-11.02,4.2C391.63,374.11,390.24,377.78,390.24,382.41z"/>
		<path class="st6" d="M469.63,384.96v15.39c0,0.37-0.16,0.53-0.53,0.53h-2.72c-0.37,0-0.53-0.16-0.53-0.53v-35.83
			c0-0.37,0.21-0.59,0.59-0.59c0-0.05,1.92-0.05,5.75,0h5.75c7.45,0,11.82,3.83,11.87,10.49c-0.05,6.65-4.42,10.54-11.87,10.54
			H469.63z M469.63,381.56h8.41c5.27,0,8.04-2.61,8.04-7.08c0-4.52-2.82-7.19-8.09-7.19l-8.36,0.05V381.56z"/>
		<path class="st6" d="M523.25,389.01h-16.72l-4.69,11.5c-0.11,0.27-0.32,0.37-0.59,0.37h-2.66c-0.48,0-0.58-0.21-0.42-0.59
			l14.64-35.83c0.11-0.32,0.32-0.48,0.69-0.48h2.77c0.37,0,0.59,0.16,0.75,0.48l14.59,35.83c0.16,0.37,0.05,0.59-0.37,0.59h-2.77
			c-0.27,0-0.43-0.11-0.53-0.37L523.25,389.01z M514.94,368.35l-7.03,17.25h14L514.94,368.35z"/>
		<path class="st6" d="M556.37,384.96h-5.32v15.39c0,0.37-0.16,0.53-0.53,0.53h-2.72c-0.37,0-0.53-0.16-0.53-0.53v-35.88
			c0-0.37,0.16-0.53,0.53-0.53h3.25h7.24c7.45,0,11.82,3.83,11.87,10.49c-0.05,6.02-3.62,9.74-9.85,10.44l9.9,15.38
			c0.27,0.43,0.16,0.64-0.32,0.64h-3.51c-0.21,0-0.43-0.11-0.59-0.27L556.37,384.96z M551.05,367.29v14.27h7.35
			c5.27,0,8.04-2.61,8.04-7.08c0-4.52-2.82-7.19-8.09-7.19H551.05z"/>
		<path class="st6" d="M608.28,389.01h-16.72l-4.69,11.5c-0.11,0.27-0.32,0.37-0.59,0.37h-2.66c-0.48,0-0.58-0.21-0.42-0.59
			l14.64-35.83c0.11-0.32,0.32-0.48,0.69-0.48h2.77c0.37,0,0.59,0.16,0.75,0.48l14.59,35.83c0.16,0.37,0.05,0.59-0.37,0.59h-2.77
			c-0.27,0-0.43-0.11-0.53-0.37L608.28,389.01z M599.98,368.35l-7.03,17.25h14L599.98,368.35z"/>
		<path class="st6" d="M659.99,383.74v16.61c0,0.37-0.16,0.53-0.53,0.53h-2.66c-0.37,0-0.53-0.16-0.53-0.53v-35.83
			c0-0.37,0.21-0.59,0.59-0.59h19.16c0.37,0,0.53,0.16,0.53,0.53v2.34c0,0.37-0.21,0.53-0.59,0.53h-15.97v12.99h13.47
			c0.37,0,0.53,0.16,0.53,0.53v2.34c0,0.37-0.16,0.53-0.53,0.53H659.99z"/>
		<path class="st6" d="M711,389.01h-16.72l-4.69,11.5c-0.11,0.27-0.32,0.37-0.59,0.37h-2.66c-0.48,0-0.59-0.21-0.43-0.59
			l14.64-35.83c0.11-0.32,0.32-0.48,0.69-0.48h2.77c0.37,0,0.59,0.16,0.75,0.48l14.59,35.83c0.16,0.37,0.05,0.59-0.37,0.59h-2.77
			c-0.27,0-0.43-0.11-0.53-0.37L711,389.01z M702.69,368.35l-7.03,17.25h14L702.69,368.35z"/>
		<path class="st6" d="M738.42,363.94c0.27,0,0.48,0.16,0.64,0.43l14,27.36l14-27.42c0.11-0.27,0.32-0.37,0.64-0.37h2.88
			c0.37,0,0.53,0.16,0.53,0.53v35.88c0,0.37-0.16,0.53-0.53,0.53h-2.66c-0.37,0-0.53-0.16-0.53-0.53v-28.91l-12.25,23.48
			c-0.11,0.27-0.32,0.43-0.64,0.43h-2.88c-0.27,0-0.48-0.1-0.64-0.37l-12.24-23.48v28.85c0,0.37-0.16,0.53-0.53,0.53h-2.4
			c-0.53,0-0.8-0.27-0.8-0.8v-35.35c0-0.53,0.27-0.8,0.8-0.8H738.42z"/>
		<path class="st6" d="M799.33,356.86c0.16,0.26,0.11,0.53-0.21,0.69l-9.58,5.43c-0.32,0.16-0.59,0.11-0.75-0.16l-0.9-1.49
			c-0.16-0.32-0.11-0.59,0.16-0.8l8.94-6.5c0.32-0.16,0.59-0.1,0.75,0.16L799.33,356.86z M794.65,400.41c0,0.32-0.16,0.48-0.48,0.48
			h-2.72c-0.37,0-0.53-0.16-0.53-0.48v-35.94c0-0.37,0.16-0.53,0.48-0.53h2.72c0.37,0,0.53,0.16,0.53,0.53V400.41z"/>
		<path class="st6" d="M818.13,397.48h13.26c0.37,0,0.53,0.16,0.53,0.53v2.4c0,0.32-0.16,0.48-0.48,0.48h-16.5
			c-0.37,0-0.53-0.16-0.53-0.48v-35.94c0-0.37,0.16-0.53,0.48-0.53h2.72c0.37,0,0.53,0.16,0.53,0.53V397.48z"/>
		<path class="st6" d="M852.37,400.41c0,0.32-0.16,0.48-0.48,0.48h-2.72c-0.37,0-0.53-0.16-0.53-0.48v-35.94
			c0-0.37,0.16-0.53,0.48-0.53h2.72c0.37,0,0.53,0.16,0.53,0.53V400.41z"/>
		<path class="st6" d="M893.1,389.01h-16.72l-4.69,11.5c-0.11,0.27-0.32,0.37-0.59,0.37h-2.66c-0.48,0-0.58-0.21-0.42-0.59
			l14.64-35.83c0.11-0.32,0.32-0.48,0.69-0.48h2.77c0.37,0,0.59,0.16,0.75,0.48l14.59,35.83c0.16,0.37,0.05,0.59-0.37,0.59h-2.77
			c-0.27,0-0.43-0.11-0.53-0.37L893.1,389.01z M884.79,368.35l-7.03,17.25h14L884.79,368.35z"/>
		<path class="st6" d="M915.04,396.15l1.38-2.24c0.16-0.37,0.43-0.37,0.8-0.11c3.03,2.61,6.55,3.94,10.65,3.94
			c5.16,0,8.3-2.61,8.3-6.6c0-3.25-2.66-4.85-9.42-6.5c-7.93-1.92-11.34-5.43-11.5-11.02c-0.05-2.93,1.06-5.32,3.41-7.29
			c2.4-1.97,5.38-2.93,9-2.88c4.52,0.05,7.99,1.22,10.49,3.57c0.32,0.16,0.37,0.43,0.16,0.8l-1.17,2.45
			c-0.16,0.32-0.43,0.37-0.8,0.16c-2.45-2.18-5.43-3.3-8.94-3.3c-2.4,0-4.37,0.59-5.96,1.81c-1.6,1.22-2.4,2.71-2.4,4.53
			c0,1.81,0.64,3.25,1.92,4.31c1.33,1.01,3.83,2.02,7.61,3.03c7.93,2.08,11.18,4.85,11.34,9.74c0.21,6.76-4.05,10.91-12.3,10.86
			c-5.38-0.05-9.53-1.54-12.46-4.47C914.88,396.78,914.88,396.52,915.04,396.15z"/>
	</g>
	<g>
		<path class="st6" d="M528.27,56.37C528.27,56.37,528.27,56.37,528.27,56.37l0-0.05h-1.25c-0.97-0.04-1.95-0.06-2.93-0.06
			c-0.98,0-1.95,0.03-2.92,0.06h-1.48v141.59h-0.09c1.45,0.08,2.91,0.12,4.38,0.12c1.4,0,2.79-0.04,4.18-0.11l0.11,0.11
			L528.27,56.37L528.27,56.37z"/>
		<path class="st6" d="M583.48,88.76c-11.54-20.99-33.86-35.21-59.51-35.21c-25.65,0-47.97,14.23-59.51,35.22v0h-9.83v0
			c12.26-26,38.7-43.99,69.35-43.99c30.65,0,57.1,18,69.35,44l0.02-0.01"/>
		<path class="st6" d="M451.14,97.53c-2.46,7.51-3.79,15.54-3.79,23.88c0,37.84,27.42,69.27,63.48,75.5V188h0
			c-31.19-6.12-54.72-33.61-54.72-66.59c0-8.4,1.53-16.45,4.32-23.88"/>
		<path class="st6" d="M559.68,189.22c-2.88,1.52-5.87,2.86-8.95,4.01l0-9.44c3.12-1.34,6.12-2.91,8.97-4.68L559.68,189.22z"/>
		<path class="st6" d="M573.57,179.82c-3.27,2.78-6.78,5.29-10.49,7.5l0-10.44c3.8-2.69,7.32-5.76,10.49-9.15L573.57,179.82z"/>
		<path class="st6" d="M547.37,194.4c-3.32,1.06-6.74,1.91-10.24,2.51l0-8.91c3.52-0.69,6.94-1.65,10.24-2.87L547.37,194.4z"/>
	</g>
</g>
</svg>
