<?xml version="1.0" encoding="utf-8"?>
<!-- Generator: Adobe Illustrator 24.0.1, SVG Export Plug-In . SVG Version: 6.00 Build 0)  -->
<svg version="1.1" id="Camada_1" xmlns="http://www.w3.org/2000/svg" xmlns:xlink="http://www.w3.org/1999/xlink" x="0px" y="0px"
	 viewBox="0 0 514.03 538.25" style="enable-background:new 0 0 514.03 538.25;" xml:space="preserve">
<style type="text/css">
	.st0{fill:#575756;}
	.st1{fill:#DADADA;}
	.st2{fill:#FFFFFF;}
	.st3{fill:#F7D1BA;}
	.st4{fill:#D39A89;}
	.st5{fill:#CE7E5D;}
	.st6{fill:#A7523D;}
</style>
<g>
	<path class="st6" d="M279.88,81.33C279.88,81.33,279.88,81.33,279.88,81.33l-0.01-0.15h-3.6c-2.81-0.11-5.62-0.18-8.45-0.18
		c-2.83,0-5.64,0.07-8.44,0.18h-4.28v408.86h-0.27c4.19,0.24,8.41,0.36,12.65,0.36c4.05,0,8.07-0.11,12.06-0.32l0.33,0.32
		L279.88,81.33L279.88,81.33z"/>
	<path class="st6" d="M439.33,174.85C406,114.24,341.54,73.16,267.49,73.16c-74.06,0-138.53,41.09-171.85,101.71v0h-28.4v0
		C102.63,99.8,178.99,47.85,267.49,47.85c88.51,0,164.88,51.97,200.27,127.05l0.06-0.03"/>
	<path class="st6" d="M57.17,200.18c-7.11,21.7-10.95,44.87-10.95,68.95c0,109.26,79.19,200.03,183.31,218.03v-25.74h0
		c-90.06-17.68-158-97.05-158-192.29c0-24.27,4.41-47.5,12.47-68.95"/>
	<path class="st6" d="M370.6,464.96c-8.31,4.39-16.94,8.26-25.84,11.58l0-27.26c9.01-3.87,17.66-8.39,25.91-13.51L370.6,464.96z"/>
	<path class="st6" d="M410.7,437.81c-9.45,8.03-19.58,15.28-30.3,21.65l0-30.15c10.99-7.76,21.14-16.62,30.3-26.42L410.7,437.81z"/>
	<path class="st6" d="M335.03,479.9c-9.59,3.07-19.47,5.51-29.58,7.25l0-25.74c10.16-1.99,20.05-4.78,29.58-8.28L335.03,479.9z"/>
</g>
</svg>
